<?xml version="1.0" encoding="utf-8"?>
<svg viewBox="324.892 7.558 191.452 191.569" xmlns="http://www.w3.org/2000/svg">
  <defs>
    <clipPath id="clipPath14" clipPathUnits="userSpaceOnUse">
      <path id="path12" d="M 0,0 H 612 V 792 H 0 Z"/>
    </clipPath>
    <clipPath id="clipPath22" clipPathUnits="userSpaceOnUse">
      <path id="path20" d="M 0,792 H 612 V 0 H 0 Z"/>
    </clipPath>
    <clipPath id="clipPath30" clipPathUnits="userSpaceOnUse">
      <path id="path28" d="M 0,792 H 611.209 V 0.791214 l -611.209,0 z"/>
    </clipPath>
  </defs>
  <g clip-path="url(#clipPath14)" transform="matrix(1.3333330154418945, 0, 0, -1.3333330154418945, -128.17414855957028, 718.5690917968749)" id="g10">
    <g id="g16" transform="matrix(1, 0, 0, 1, 35.960278, 28.239637)">
      <g clip-path="url(#clipPath22)" id="g18" transform="matrix(1, 0, 0, 1, 76.770035, -87.659157)">
        <g id="g24">
          <g id="g26"/>
          <g id="g242">
            <g id="g240" clip-path="url(#clipPath30)">
              <g id="g34" transform="translate(372.9482,434.4407)"/>
              <g id="g38" transform="translate(130.3273,447.9123)">
                <path id="path36" style="fill-opacity: 1; fill-rule: nonzero; stroke: none; fill: rgb(255, 255, 255);" d="M 119.18 62.981 C 117.421 63.012 115.848 61.429 115.802 59.582 C 115.755 57.72 117.384 55.987 119.216 55.95 C 121.123 55.912 122.628 57.331 122.68 59.217 C 122.735 61.193 121.104 62.947 119.18 62.981 M 128.866 37.287 C 128.855 39.181 127.075 41.071 125.301 41.073 C 123.498 41.075 121.513 39.118 121.589 37.414 C 121.68 35.392 123.517 33.59 125.419 33.657 C 127.237 33.72 128.878 35.448 128.866 37.287 M 107.547 83.968 L 119.698 83.968 C 119.138 87.128 117.859 88.275 115.018 88.311 C 113.97 88.325 112.922 88.345 111.874 88.351 C 108.671 88.368 107.876 87.611 107.547 83.968 M 124.569 89.983 C 126.813 89.95 128.897 91.56 128.947 93.366 C 129.008 95.511 126.334 98.121 124.019 98.176 C 122 98.224 120.023 96.12 119.971 93.869 C 119.922 91.738 121.953 90.021 124.569 89.983 M 141.723 81.051 C 141.728 83.507 140.361 85.518 138.086 86.402 C 135.819 87.283 133.35 86.665 131.793 84.907 C 131.079 84.101 130.062 83.507 129.54 82.61 C 129.196 82.019 129.26 80.955 129.557 80.288 C 129.94 79.427 130.807 78.797 131.344 77.986 C 133.064 75.388 134.997 74.561 137.664 75.374 C 140.114 76.12 141.718 78.363 141.723 81.051 M 179.98 87.944 C 179.956 88.051 179.932 88.157 179.908 88.263 C 179.187 88.312 178.465 88.356 177.745 88.411 C 176.681 88.492 175.831 88.483 175.813 86.966 C 175.795 85.498 176.45 85.138 177.722 85.219 C 178.507 85.269 179.308 85.143 180.084 85.241 C 181.612 85.434 182.505 84.847 183.102 83.414 C 183.924 81.437 185.469 80.252 187.676 80.25 C 189.178 80.249 190.703 80.312 192.177 80.577 C 194.619 81.016 196.104 82.691 196.162 84.786 C 196.217 86.819 194.561 89.125 192.275 89.348 C 189.912 89.579 187.475 89.269 185.092 89.004 C 183.37 88.813 181.683 88.309 179.98 87.944 M 122.519 31.464 C 129.152 21.676 157.901 8.401 165.921 11.844 C 151.277 18.464 136.884 24.97 122.519 31.464 M 111.502 49.959 C 112.159 46.073 112.694 45.596 116.552 45.583 C 121.092 45.569 125.633 45.524 130.172 45.566 C 131.49 45.578 132.242 45.328 132.785 43.892 C 133.229 42.717 134.304 41.517 135.416 40.912 C 137.76 39.636 140.83 40.646 142.423 42.856 C 143.971 45.004 143.734 48.227 141.889 50.137 C 140.172 51.914 136.383 52.681 134.632 51.089 C 132.96 49.568 131.243 49.696 129.368 49.747 C 126.738 49.817 124.107 49.922 121.475 49.95 C 118.145 49.986 114.813 49.959 111.502 49.959 M 185.675 94.945 C 185.755 95.23 185.834 95.516 185.914 95.801 C 178.86 100.638 170.802 103.262 162.617 106.003 C 162.781 106.767 162.887 107.47 163.086 108.145 C 164.23 112.03 163.921 115.827 162.435 119.557 C 161.526 121.837 160.996 122.011 159.003 120.546 C 153.612 116.585 150.703 110.967 148.613 104.82 C 148.519 104.543 148.601 104.207 148.601 103.93 C 161.045 100.914 173.36 97.929 185.675 94.945 M 197.23 71.816 C 197.283 71.999 197.335 72.182 197.387 72.365 C 195.689 73.794 193.923 75.054 191.502 75.031 C 188.077 74.998 184.651 74.986 181.226 75.044 C 180.671 75.053 179.843 75.316 179.615 75.726 C 177.515 79.507 174.84 80.827 170.734 79.685 C 169.36 79.303 168.559 79.646 167.621 80.566 C 163.435 84.669 159.206 88.73 154.935 92.744 C 154.263 93.375 153.288 94.09 152.458 94.084 C 145.411 94.037 138.366 93.84 131.321 93.668 C 130.305 93.644 129.095 93.504 129.28 92.179 C 129.344 91.714 130.581 91.105 131.295 91.088 C 137.287 90.945 143.282 90.954 149.275 90.832 C 150.123 90.814 151.176 90.573 151.77 90.034 C 156.647 85.609 161.453 81.104 166.235 76.575 C 166.765 76.073 167.321 75.272 167.331 74.602 C 167.392 70.527 171.702 68.366 175.285 70.39 C 177.695 71.751 180.105 71.885 182.679 71.858 C 186.96 71.813 191.242 71.827 195.523 71.816 C 196.092 71.814 196.661 71.816 197.23 71.816 M 113.697 102.674 C 113.851 102.467 114.006 102.26 114.16 102.053 C 118.159 102.053 122.166 101.888 126.154 102.091 C 132.551 102.416 137.34 105.616 140.771 110.94 C 141.592 112.214 142.353 113.527 143.155 114.813 C 146.147 119.61 149.505 124.036 154.681 126.75 C 159.905 129.49 165.276 128.678 168.826 123.991 C 170.483 121.803 171.56 119.066 172.413 116.421 C 172.933 114.809 173.423 113.929 175.156 113.441 C 182.542 111.362 189.63 108.526 196.145 104.399 C 198.517 102.897 200.511 101.021 200.559 98.008 C 200.639 92.954 203.232 89.157 206.409 85.618 C 210.063 81.548 213.85 77.594 217.405 73.441 C 220.049 70.351 220.087 68.567 217.659 65.301 C 214.681 61.295 212.803 56.877 211.914 51.998 C 211.653 50.572 211.323 49.159 211.091 47.728 C 210.9 46.548 210.323 46.095 209.089 46.121 C 205.333 46.2 201.574 46.188 197.817 46.164 C 196.423 46.155 195.662 46.799 194.804 47.918 C 192.212 51.299 189.514 54.627 186.575 57.706 C 184.577 59.799 182.913 59.305 181.868 56.619 C 181.291 55.136 180.455 54.335 178.83 54.39 C 178.043 54.416 177.252 54.277 176.462 54.274 C 167.892 54.234 159.322 54.215 150.752 54.163 C 149.854 54.158 148.629 54.558 148.64 52.901 C 148.648 51.639 148.438 50.368 150.283 50.126 C 152.306 49.861 154.306 49.419 156.317 49.06 C 158.09 48.743 159.864 48.434 161.638 48.122 C 161.726 47.904 161.813 47.686 161.901 47.469 C 157.925 44.313 153.95 41.158 149.74 37.817 C 150.582 37.31 151.264 36.839 151.997 36.466 C 164.746 29.971 177.41 23.336 189.057 14.935 C 189.593 14.549 190.694 14.532 191.353 14.794 C 203.787 19.734 213.848 27.787 221.214 38.878 C 230.244 52.474 232.864 67.581 229.896 83.537 C 223.772 116.473 193.096 140.879 155.252 133.363 C 141.17 130.566 129.967 122.79 120.648 112.165 C 118.072 109.228 116 105.85 113.697 102.674 M 122.611 66.14 C 129.664 66.14 136.719 66.114 143.772 66.162 C 145.133 66.171 146.014 65.897 146.791 64.582 C 148.579 61.56 151.87 60.986 154.609 62.968 C 157.207 64.847 157.729 68.256 155.815 70.834 C 153.956 73.338 150.059 74.004 147.739 71.936 C 146.513 70.842 145.31 70.614 143.82 70.622 C 129.449 70.697 115.078 70.772 100.707 70.748 C 98.85 70.745 98.308 71.191 98.25 73.126 C 97.147 109.546 124.861 133.91 149.102 140.621 C 181.784 149.668 216.447 135.013 231.616 104.802 C 249.142 69.893 237.194 28.959 201.919 10.267 C 187.788 2.779 172.582 1.276 156.92 3.646 C 143.465 5.683 131.587 11.211 121.446 20.279 C 108.937 31.466 101.305 45.316 99.149 62.061 C 98.624 66.144 98.608 66.141 102.636 66.141 C 109.294 66.14 115.952 66.141 122.611 66.14"/>
              </g>
              <g id="g42" transform="translate(489.8468,446.7848)"/>
              <g id="g46" transform="translate(416.3698,486.1983)"/>
              <g id="g50" transform="translate(359.316,479.533)"/>
              <g id="g54" transform="translate(368.8217,493.23)"/>
              <g id="g58" transform="translate(456.7934,484.8389)"/>
              <g id="g62" transform="translate(287.707,493.2298)"/>
              <g id="g66" transform="translate(489.6115,493.1489)"/>
              <g id="g70" transform="translate(318.0974,476.6999)"/>
              <g id="g74" transform="translate(405.2154,431.1156)"/>
              <g id="g78" transform="translate(487.3222,418.6384)"/>
              <g id="g82" transform="translate(301.3418,427.9342)"/>
              <g id="g86" transform="translate(497.9118,423.9884)"/>
              <g id="g90" transform="translate(275.9852,424.3303)"/>
              <g id="g94" transform="translate(325.113,431.2427)"/>
              <g id="g98" transform="translate(384.4834,414.3867)"/>
              <g id="g102" transform="translate(334.697,425.1184)"/>
              <g id="g106" transform="translate(435.6678,424.0041)"/>
              <g id="g110" transform="translate(423.1596,423.9839)"/>
              <g id="g114" transform="translate(465.8881,423.9503)"/>
              <g id="g118" transform="translate(359.9323,418.1854)"/>
              <g id="g122" transform="translate(456.5754,422.4689)"/>
              <g id="g126" transform="translate(348.6248,427.0354)"/>
              <g id="g130" transform="translate(443.8705,432.2177)"/>
              <g id="g134" transform="translate(377.7947,426.3379)"/>
              <g id="g140" transform="translate(365.7273,418.598)"/>
              <g id="g146" transform="translate(372.9482,434.4407)"/>
              <g id="g150" transform="translate(124.8443,487.6057)"/>
              <g id="g154" transform="translate(208.3775,456.7469)"/>
              <g id="g158" transform="translate(196.8226,479.8758)"/>
              <g id="g162" transform="translate(122.6488,434.8899)"/>
              <g id="g166" transform="translate(133.6664,416.3958)"/>
              <g id="g170" transform="translate(191.1274,472.8755)"/>
              <g id="g174" transform="translate(152.8705,465.9821)"/>
              <g id="g178" transform="translate(135.7161,474.9142)">
                <path id="path176" style="fill:#ffffff;fill-opacity:1;fill-rule:nonzero;stroke:none" d="m 0,0 c -2.615,0.038 -4.647,1.755 -4.598,3.886 0.052,2.251 2.03,4.355 4.048,4.307 C 1.765,8.138 4.439,5.528 4.379,3.383 4.328,1.577 2.244,-0.033 0,0"/>
              </g>
              <g id="g182" transform="translate(118.694,468.8994)">
                <path id="path180" style="fill:#ffffff;fill-opacity:1;fill-rule:nonzero;stroke:none" d="M 0,0 C 0.329,3.643 1.124,4.4 4.328,4.383 5.376,4.377 6.423,4.357 7.471,4.343 10.312,4.307 11.592,3.16 12.151,0 Z"/>
              </g>
              <g id="g186" transform="translate(140.0137,422.2183)"/>
              <g id="g190" transform="translate(130.3273,447.9123)"/>
              <g id="g194" transform="translate(416.3698,486.1983)"/>
              <g id="g198" transform="translate(456.7934,484.8389)"/>
              <g id="g202" transform="translate(405.2465,425.4857)"/>
              <g id="g206" transform="translate(405.2154,431.1156)"/>
              <g id="g210" transform="translate(300.715,425.056)"/>
              <g id="g214" transform="translate(301.3418,427.9342)"/>
              <g id="g218" transform="translate(497.9118,423.9884)"/>
              <g id="g222" transform="translate(275.9852,424.3303)"/>
              <g id="g226" transform="translate(334.697,425.1184)"/>
              <g id="g230" transform="translate(435.6678,424.0041)"/>
              <g id="g234" transform="translate(423.1596,423.9839)"/>
              <g id="g238" transform="translate(465.8881,423.9503)"/>
            </g>
          </g>
        </g>
      </g>
    </g>
  </g>
</svg>